<svg xmlns="http://www.w3.org/2000/svg" xmlns:xlink="http://www.w3.org/1999/xlink" viewBox="0 0 500 500"><defs><clipPath id="freepik--clip-path--inject-4"><path d="M169.28,240.61l2.38,5.19S186.29,239,189.46,235c.81-1,1.93-2.67,3.14-4.54,2-3.09,4.24-6.81,5.8-9.42,1.16-1.95,1.94-3.28,1.94-3.28l-8.28-13.06c-1.81,1.39-7.35,23.71-8.34,24.91S169.28,240.61,169.28,240.61Z" style="fill:#847B7B"></path></clipPath><clipPath id="freepik--clip-path-2--inject-4"><path d="M230.27,249.14s5.82-35.45-4.18-51.34c0,0-20-1.24-34,6.87,0,0,5.8,15.78,6.67,44.47Z" style="fill:#847B7B"></path></clipPath></defs><g id="freepik--Shadow--inject-4"><ellipse id="freepik--path--inject-4" cx="250" cy="416.24" rx="193.89" ry="11.32" style="fill:#f5f5f5"></ellipse></g><g id="freepik--Interface--inject-4"><rect x="252.11" y="153.76" width="190.02" height="206.76" rx="3.65" style="fill:#847B7B;opacity:0.5"></rect><rect x="246.11" y="149.76" width="190.02" height="206.76" rx="3.65" style="fill:#847B7B"></rect><rect x="246.11" y="149.76" width="190.02" height="206.76" rx="3.65" style="fill:#fff;opacity:0.8;isolation:isolate"></rect><rect x="92.73" y="148.87" width="100.02" height="176.76" rx="3.65" style="fill:#847B7B;opacity:0.5"></rect><rect x="86.73" y="142.87" width="100.02" height="176.76" rx="3.65" style="fill:#847B7B"></rect><rect x="86.73" y="142.87" width="100.02" height="176.76" rx="3.65" style="fill:#fff;opacity:0.8;isolation:isolate"></rect><rect x="86.73" y="91.31" width="350.2" height="23.26" rx="3.85" style="fill:#847B7B"></rect><path d="M401.39,102.94a4.49,4.49,0,1,1-4.49-4.54A4.51,4.51,0,0,1,401.39,102.94Z" style="fill:#fff;opacity:0.6000000000000001;isolation:isolate"></path><path d="M415.43,102.94a4.49,4.49,0,1,1-4.49-4.54A4.51,4.51,0,0,1,415.43,102.94Z" style="fill:#fff;opacity:0.6000000000000001;isolation:isolate"></path><path d="M429.46,102.94A4.49,4.49,0,1,1,425,98.4,4.51,4.51,0,0,1,429.46,102.94Z" style="fill:#fff;opacity:0.6000000000000001;isolation:isolate"></path><rect x="94.89" y="97.1" width="11.54" height="11.67" style="fill:#fff;opacity:0.6000000000000001;isolation:isolate"></rect></g><g id="freepik--asset-1--inject-4"><rect x="72.67" y="171.04" width="107.84" height="20.63" style="fill:#847B7B"></rect><rect x="72.67" y="171.04" width="107.84" height="20.63" style="opacity:0.2;isolation:isolate"></rect><rect x="79.58" y="177.05" width="8.61" height="8.61" style="fill:#fff"></rect><polyline points="81.46 181.38 83.07 183.44 86.31 179.27" style="fill:none;stroke:#847B7B;stroke-linecap:round;stroke-linejoin:round;stroke-width:1.5px"></polyline><path d="M174.83,186.19h-8.66v-5.86h8.66ZM170.5,176a3.68,3.68,0,0,0-3.68,3.67h1a2.68,2.68,0,0,1,5.35,0h1A3.68,3.68,0,0,0,170.5,176Z" style="fill:#847B7B"></path><rect x="56.82" y="209.18" width="107.84" height="20.63" style="fill:#847B7B"></rect><rect x="56.82" y="209.18" width="107.84" height="20.63" style="fill:#fff;opacity:0.4;isolation:isolate"></rect><rect x="63.73" y="215.18" width="8.61" height="8.61" style="fill:#fff"></rect><rect x="150.32" y="218.47" width="8.66" height="5.85" style="fill:#fff"></rect><path d="M158.32,217.83h-1a2.67,2.67,0,1,0-5.34,0h-1a3.67,3.67,0,1,1,7.34,0Z" style="fill:#fff"></path><rect x="73.23" y="249.1" width="107.84" height="20.63" style="fill:#847B7B"></rect><rect x="73.23" y="249.1" width="107.84" height="20.63" style="fill:#fff;opacity:0.4;isolation:isolate"></rect><rect x="80.14" y="255.11" width="8.61" height="8.61" style="fill:#fff"></rect><polyline points="82.02 259.43 83.63 261.5 86.87 257.33" style="fill:none;stroke:#847B7B;stroke-linecap:round;stroke-linejoin:round;stroke-width:1.5px"></polyline><g style="opacity:0.6000000000000001;isolation:isolate"><rect x="166.73" y="258.39" width="8.66" height="5.85" style="fill:#fff"></rect><path d="M174.73,257.76h-1a2.68,2.68,0,1,0-5.35,0h-1a3.68,3.68,0,1,1,7.35,0Z" style="fill:#fff"></path></g></g><g id="freepik--asset-2--inject-4"><rect x="326.97" y="226.62" width="84.21" height="54.77" style="fill:#847B7B"></rect><rect x="326.97" y="226.62" width="84.21" height="54.77" style="fill:#fff;opacity:0.5;isolation:isolate"></rect><rect x="330.05" y="236.88" width="78.05" height="41.76" style="fill:#847B7B"></rect><rect x="336.41" y="243.12" width="57.73" height="1.8" style="fill:#fff"></rect><rect x="336.41" y="248.63" width="27.7" height="1.8" style="fill:#fff"></rect><rect x="336.41" y="254.13" width="34.89" height="1.8" style="fill:#fff"></rect><rect x="336.41" y="259.63" width="12.3" height="1.8" style="fill:#fff"></rect><rect x="336.41" y="265.13" width="7.96" height="1.8" style="fill:#fff"></rect><path d="M413.59,334.62v30.54a3.44,3.44,0,0,1-2.94,3.41,3,3,0,0,1-.52,0H370.9a3.45,3.45,0,0,1-3.45-3.45V334.62a3.35,3.35,0,0,1,.35-1.51,3.45,3.45,0,0,1,3.1-1.95h15.38a3.54,3.54,0,0,0,2-.66,3.5,3.5,0,0,0,1.26-1.72,3.46,3.46,0,0,1,3.29-2.39H401a3.45,3.45,0,0,1,3.29,2.39,3.46,3.46,0,0,0,3.29,2.38h2.51A3.46,3.46,0,0,1,413.59,334.62Z" style="fill:#847B7B"></path><path d="M410.65,336.06v32.51l0,0H370.9a3.45,3.45,0,0,1-3.45-3.45V334.62a3.35,3.35,0,0,1,.35-1.51h39.9A3,3,0,0,1,410.65,336.06Z" style="fill:#fff;opacity:0.30000000000000004;isolation:isolate"></path><polygon points="319.97 289.67 319.97 327.86 312.51 335.32 285.15 335.32 285.15 289.67 319.97 289.67" style="fill:#847B7B"></polygon><polygon points="319.97 289.67 319.97 327.86 312.51 335.32 285.15 335.32 285.15 289.67 319.97 289.67" style="fill:#fff;opacity:0.4;isolation:isolate"></polygon><polygon points="319.97 327.86 312.51 327.86 312.51 335.32 319.97 327.86" style="fill:#847B7B"></polygon><rect x="289.49" y="297.42" width="26.26" height="1.43" style="fill:#847B7B"></rect><rect x="289.49" y="301.81" width="22.09" height="1.43" style="fill:#847B7B"></rect><rect x="289.49" y="306.19" width="26.26" height="1.43" style="fill:#847B7B"></rect><rect x="289.49" y="310.58" width="9.8" height="1.43" style="fill:#847B7B"></rect><rect x="289.49" y="314.97" width="6.35" height="1.43" style="fill:#847B7B"></rect></g><g id="freepik--Selection--inject-4"><rect x="272.25" y="143.9" width="71.19" height="58.82" style="fill:#847B7B"></rect><path d="M272.25,143.9v58.82h71.19V143.9Zm68.87,56.5H274.58V146.22h66.54Z" style="fill:#fff;opacity:0.6000000000000001;isolation:isolate"></path><polygon points="274.58 184.34 294.98 169.52 310.14 184.34 325.3 175.68 341.12 185.42 341.12 200.4 274.58 200.4 274.58 184.34" style="fill:#fff;opacity:0.30000000000000004;isolation:isolate"></polygon><path d="M322.64,159.59a4.87,4.87,0,1,1-4.87-4.88A4.87,4.87,0,0,1,322.64,159.59Z" style="fill:#fff;opacity:0.6000000000000001;isolation:isolate"></path><polyline points="348.09 205.16 348.09 207.16 346.09 207.16" style="fill:none;stroke:#263238;stroke-miterlimit:10"></polyline><line x1="342.95" y1="207.17" x2="271.35" y2="207.17" style="fill:none;stroke:#263238;stroke-miterlimit:10;stroke-dasharray:4.181238174438477,3.1359288692474365"></line><polyline points="269.78 207.16 267.78 207.16 267.78 205.16" style="fill:none;stroke:#263238;stroke-miterlimit:10"></polyline><line x1="267.78" y1="202.27" x2="267.78" y2="143.01" style="fill:none;stroke:#263238;stroke-miterlimit:10;stroke-dasharray:3.8548424243927,2.89113187789917"></line><polyline points="267.78 141.56 267.78 139.56 269.78 139.56" style="fill:none;stroke:#263238;stroke-miterlimit:10"></polyline><line x1="272.92" y1="139.56" x2="344.52" y2="139.56" style="fill:none;stroke:#263238;stroke-miterlimit:10;stroke-dasharray:4.181238174438477,3.1359288692474365"></line><polyline points="346.09 139.56 348.09 139.56 348.09 141.56" style="fill:none;stroke:#263238;stroke-miterlimit:10"></polyline><line x1="348.09" y1="144.45" x2="348.09" y2="203.72" style="fill:none;stroke:#263238;stroke-miterlimit:10;stroke-dasharray:3.8548424243927,2.89113187789917"></line><rect x="346.51" y="137.98" width="3.15" height="3.15" style="fill:#263238"></rect><rect x="346.51" y="205.59" width="3.15" height="3.15" style="fill:#263238"></rect><rect x="266.2" y="205.59" width="3.15" height="3.15" style="fill:#263238"></rect><rect x="266.2" y="137.98" width="3.15" height="3.15" style="fill:#263238"></rect><rect x="306.27" y="137.98" width="3.15" height="3.15" style="fill:#263238"></rect><rect x="306.36" y="205.59" width="3.15" height="3.15" style="fill:#263238"></rect><rect x="346.51" y="171.79" width="3.15" height="3.15" style="fill:#263238"></rect><rect x="266.2" y="171.79" width="3.15" height="3.15" style="fill:#263238"></rect></g><g id="freepik--Character--inject-4"><path d="M175,236.62l-10.64,8.64s-2.6.05-3.42.91-4,7.25-3.51,8.12,5.69,2.59,6.8,1.56,3-6.94,3-7.57l13.6-9.12Z" style="fill:#ebb376"></path><path d="M169.28,240.61l2.38,5.19S186.29,239,189.46,235c.81-1,1.93-2.67,3.14-4.54,2-3.09,4.24-6.81,5.8-9.42,1.16-1.95,1.94-3.28,1.94-3.28l-8.28-13.06c-1.81,1.39-7.35,23.71-8.34,24.91S169.28,240.61,169.28,240.61Z" style="fill:#847B7B"></path><g style="clip-path:url(#freepik--clip-path--inject-4)"><path d="M192.6,230.42c2-3.09,4.24-6.81,5.8-9.42l-3.85-9.5S192.46,222.4,192.6,230.42Z" style="opacity:0.1;isolation:isolate"></path></g><path d="M260.05,187.25l10.48-8.14s.85-2.46,1.92-3,8.11-1.55,8.8-.86.72,6.22-.6,7-7.53.76-8.12.53l-11.45,8.36Z" style="fill:#ebb376"></path><polygon points="171.53 411 177.8 412.11 180.38 403.55 182.72 395.69 175.49 393.16 173.39 402.6 171.53 411" style="fill:#ebb376"></polygon><polygon points="173.35 402.8 180.35 403.72 182.71 395.78 175.48 393.2 173.35 402.8" style="opacity:0.2;isolation:isolate"></polygon><polygon points="213.43 411.15 219.81 411.15 220.85 402.6 221.8 394.62 214.23 393.47 213.81 402.85 213.43 411.15" style="fill:#ebb376"></polygon><polygon points="213.81 403.41 220.85 403.1 221.8 394.87 214.23 393.59 213.81 403.41" style="opacity:0.2;isolation:isolate"></polygon><path d="M172.76,395.93l10.32,1.82c10.41-25.94,17.82-47.6,23-65.57,2.82-9.7,5.05-18.32,6.74-26l-.44,28.25v63.71h10.41c25.49-121,7.43-149.13,7.43-149.13l-30.5-5.1a137.19,137.19,0,0,0-2.55,17.12l-1.38,10.11-11.92,61.58Z" style="fill:#263238"></path><polygon points="184.7 396.48 171.9 392.23 172.07 397.68 182.66 401.05 184.7 396.48" style="fill:#847B7B"></polygon><polygon points="184.7 396.48 171.9 392.23 172.07 397.68 182.66 401.05 184.7 396.48" style="fill:#fff;opacity:0.6000000000000001;isolation:isolate"></polygon><polygon points="224.21 397.07 210.87 395.11 211.98 400.45 222.99 401.93 224.21 397.07" style="fill:#847B7B"></polygon><polygon points="224.21 397.07 210.87 395.11 211.98 400.45 222.99 401.93 224.21 397.07" style="fill:#fff;opacity:0.6000000000000001;isolation:isolate"></polygon><path d="M204.73,336.93c.48-1.62,1-3.2,1.44-4.75,2.56-8.81,4.26-16.72,6.26-23.83v0l1-13.08s-6.53-14.37-4.09-24.48c-.22.57-4.54,11.59-2.84,22.6A320.44,320.44,0,0,1,204.73,336.93Z" style="opacity:0.2;isolation:isolate"></path><path d="M203.85,191.53a1.43,1.43,0,0,0,.27.15,11,11,0,0,0,4.15,1.4c4.26.42,7-.51,8.6-2.62h0c2.22-3.14,2.21-8.19,1.07-14.14a22.75,22.75,0,0,0-2.22-6.82s0-.09,0-.11-.09-.17-.14-.24a8.24,8.24,0,0,0-6.66-4.21,16.23,16.23,0,0,0-3.59.07C193.61,166.4,194,186,203.85,191.53Z" style="fill:#ebb376"></path><path d="M204.12,191.68a10.76,10.76,0,0,0,4.13,1.24c4.26.42,7-.65,8.58-2.79a11.75,11.75,0,0,1-7.49.36A6.1,6.1,0,0,0,204.12,191.68Z" style="opacity:0.2;isolation:isolate"></path><path d="M203.24,201.25c-1.05,3.26,3.14,5.05,3.14,5.05,7.37-2.33,9.05-6,9.05-6-5.6-3.66-3-12.19-3-12.19l-1.26.47-8.59.82s1.9,4.72,2.11,5.77v0C205.72,200.74,203.24,201.25,203.24,201.25Z" style="fill:#ebb376"></path><path d="M215.73,169.42s1.71,8.11-5.6,12.64c0,0-2.22,8.94-7.12,9.7-6.67,1-13.8-7.72-12.75-17.72C191.63,161.08,210.55,157.58,215.73,169.42Z" style="fill:#263238"></path><path d="M213.76,179.19c-.17-1.28-1.48-3.29-3.43-2.74s-2.49,5.79,2.71,6.26C213.78,182.78,214.11,181.86,213.76,179.19Z" style="fill:#ebb376"></path><path d="M220.48,410h-7.11a.63.63,0,0,0-.63.51l-1.46,6.59a1.09,1.09,0,0,0,.84,1.3,1,1,0,0,0,.24,0c2.91,0,3.15-.22,6.8-.22,2.25,0,9.05.23,12.16.23s3.51-3.07,2.24-3.35c-5.71-1.25-10-3-11.83-4.61A1.8,1.8,0,0,0,220.48,410Z" style="fill:#263238"></path><path d="M221,411a.16.16,0,0,1-.13-.15.17.17,0,0,1,.08-.17c.27-.17,2.66-1.64,3.48-1.21a.52.52,0,0,1,.3.49,1,1,0,0,1-.37.94,2.15,2.15,0,0,1-1.42.38A8.57,8.57,0,0,1,221,411Zm.51-.24a3.65,3.65,0,0,0,2.64-.13.72.72,0,0,0,.23-.63c0-.15-.06-.21-.11-.21a.46.46,0,0,0-.23-.05A7.25,7.25,0,0,0,221.5,410.73Z" style="fill:#847B7B"></path><path d="M220.94,411a.18.18,0,0,1-.08-.16c0-.1.19-2.23,1-2.93a.94.94,0,0,1,.75-.22.56.56,0,0,1,.56.46c.16.78-1.32,2.41-2.09,2.82H221A.17.17,0,0,1,220.94,411Zm1.19-2.88a4.14,4.14,0,0,0-.88,2.32c.77-.58,1.71-1.81,1.62-2.29,0-.05,0-.18-.26-.18h-.08A.59.59,0,0,0,222.13,408.13Z" style="fill:#847B7B"></path><path d="M178.05,410h-7.12a.65.65,0,0,0-.63.51l-1.46,6.59a1.09,1.09,0,0,0,.84,1.3,1,1,0,0,0,.24,0c2.92,0,3.15-.22,6.81-.22,2.25,0,9,.23,12.15.23s3.52-3.07,2.25-3.35c-5.71-1.25-10-3-11.84-4.61A1.78,1.78,0,0,0,178.05,410Z" style="fill:#263238"></path><path d="M178.55,411a.16.16,0,0,1-.13-.15.18.18,0,0,1,.09-.17c.26-.17,2.65-1.64,3.48-1.21a.55.55,0,0,1,.3.49,1,1,0,0,1-.37.94,2.19,2.19,0,0,1-1.42.38A8.58,8.58,0,0,1,178.55,411Zm.51-.24a3.65,3.65,0,0,0,2.64-.13.73.73,0,0,0,.24-.63c0-.15-.07-.21-.12-.21a.4.4,0,0,0-.22-.05A7.37,7.37,0,0,0,179.06,410.73Z" style="fill:#847B7B"></path><path d="M178.51,411a.17.17,0,0,1-.09-.16c0-.1.19-2.23,1.05-2.93a.9.9,0,0,1,.74-.22.57.57,0,0,1,.57.46c.15.78-1.33,2.41-2.09,2.82h-.09Zm1.18-2.88a4.13,4.13,0,0,0-.87,2.32c.76-.58,1.7-1.81,1.61-2.29,0-.05,0-.18-.25-.18h-.09A.59.59,0,0,0,179.69,408.13Z" style="fill:#847B7B"></path><path d="M230.27,249.14s5.82-35.45-4.18-51.34c0,0-20-1.24-34,6.87,0,0,5.8,15.78,6.67,44.47Z" style="fill:#847B7B"></path><g style="clip-path:url(#freepik--clip-path-2--inject-4)"><path d="M232.09,222c.43-4.81-1-9.44-1.2-13.52a39.43,39.43,0,0,1-6.58-7.49S222.5,215.36,232.09,222Z" style="opacity:0.1;isolation:isolate"></path></g><path d="M223.61,197.73s19.79-2.32,22.77-3.57c1.86-.78,16.41-10.29,16.41-10.29L266.2,189s-14.88,12-17.4,13.4c-5.9,3.24-19.16,7.82-19.16,7.82S221.63,204.6,223.61,197.73Z" style="fill:#847B7B"></path><path d="M215.43,174.79s8.23-8.23.47-13.77-15.56,1.69-15.56,1.69-18.56,4.48-14.61,16.83,6.53,13.39.65,19.72S174.5,215,180.51,221s27-.17,33.39-9.22S209,183.28,215.43,174.79Z" style="fill:#263238"></path><polygon points="198.74 249.14 198.61 245.78 230.63 246.59 230.63 249.7 198.74 249.14"></polygon><rect x="207.6" y="246.01" width="1.29" height="3.31" style="fill:#263238"></rect><rect x="222.53" y="246.38" width="1.14" height="3.62" style="fill:#263238"></rect><rect x="199.49" y="245.83" width="1.09" height="3.87" style="fill:#263238"></rect></g></svg>